HIERARCHY
ROOT Hips
{
	OFFSET -0.179506 -22.333345 2.821913
	CHANNELS 6 Xposition Yposition Zposition Zrotation Yrotation Xrotation 
	JOINT LeftUpLeg
	{
		OFFSET 6.951974 -9.140623 -0.681533
		CHANNELS 3 Zrotation Yrotation Xrotation
		JOINT LeftLeg
		{
			OFFSET 3.427654 -37.519855 -0.449580
			CHANNELS 3 Zrotation Yrotation Xrotation
			JOINT LeftFoot
			{
				OFFSET -1.359570 -39.796059 -4.369333
				CHANNELS 3 Zrotation Yrotation Xrotation
				JOINT LeftToe
				{
					OFFSET 2.635814 -5.579078 11.928840
					CHANNELS 3 Zrotation Yrotation Xrotation
					End Site
					{
						OFFSET 0.000000 0.000000 0.000000
					}
				}
			}
		}
	}
	JOINT RightUpLeg
	{
		OFFSET -6.767048 -9.052170 -0.431982
		CHANNELS 3 Zrotation Yrotation Xrotation
		JOINT RightLeg
		{
			OFFSET -3.829005 -38.256897 -0.885003
			CHANNELS 3 Zrotation Yrotation Xrotation
			JOINT RightFoot
			{
				OFFSET 1.577377 -39.841461 -4.231180
				CHANNELS 3 Zrotation Yrotation Xrotation
				JOINT RightToe
				{
					OFFSET -2.537174 -4.814398 12.334795
					CHANNELS 3 Zrotation Yrotation Xrotation
					End Site
					{
						OFFSET 0.000000 0.000000 0.000000
					}
				}
			}
		}
	}
	JOINT Spine
	{
		OFFSET -0.253288 10.896323 -2.669631
		CHANNELS 3 Zrotation Yrotation Xrotation
		JOINT Spine1
		{
			OFFSET 0.548704 13.518043 0.109247
			CHANNELS 3 Zrotation Yrotation Xrotation
			JOINT Spine2
			{
				OFFSET 0.145701 5.292222 2.542457
				CHANNELS 3 Zrotation Yrotation Xrotation
				JOINT Neck
				{
					OFFSET -0.277840 21.387037 -4.285703
					CHANNELS 3 Zrotation Yrotation Xrotation
					JOINT Head
					{
						OFFSET 0.515184 6.496960 5.134897
						CHANNELS 3 Zrotation Yrotation Xrotation
						End Site
						{
							OFFSET 0.000000 0.000000 0.000000
						}
					}
				}
				JOINT LeftShoulder
				{
					OFFSET 7.884473 12.174932 -3.408961
					CHANNELS 3 Zrotation Yrotation Xrotation
					JOINT LeftArm
					{
						OFFSET 9.097692 3.046888 -0.886815
						CHANNELS 3 Zrotation Yrotation Xrotation
						JOINT LeftForeArm
						{
							OFFSET 25.961220 -1.277207 -2.745643
							CHANNELS 3 Zrotation Yrotation Xrotation
							JOINT LeftHand
							{
								OFFSET 24.923361 0.898606 -0.117091
								CHANNELS 3 Zrotation Yrotation Xrotation
								End Site
								{
									OFFSET 0.000000 0.000000 0.000000
								}
							}
						}
					}
				}
				JOINT RightShoulder
				{
					OFFSET -8.175920 11.883285 -3.861528
					CHANNELS 3 Zrotation Yrotation Xrotation
					JOINT RightArm
					{
						OFFSET -9.601238 3.255117 -0.914307
						CHANNELS 3 Zrotation Yrotation Xrotation
						JOINT RightForeArm
						{
							OFFSET -25.374195 -1.332924 -2.140099
							CHANNELS 3 Zrotation Yrotation Xrotation
							JOINT RightHand
							{
								OFFSET -25.529810 0.777228 -0.555919
								CHANNELS 3 Zrotation Yrotation Xrotation
								End Site
								{
									OFFSET 0.000000 0.000000 0.000000
								}
							}
						}
					}
				}
			}
		}
	}
}
MOTION
Frames: 13
Frame Time: 0.033333
-29.017303 -252.046677 89.651779 -172.772670 3.879781 102.351598 0.453979 -6.212187 22.318965 -0.085363 -28.032413 7.595507 -2.975823 14.022528 -8.989020 nan nan nan -8.000430 10.818184 -63.977614 3.538630 -12.202702 69.388547 0.479259 -8.835881 -13.118114 nan nan nan 4.509339 -18.793087 9.076900 4.968282 -4.437415 1.372887 3.577630 -4.828351 -4.177875 -5.709451 9.459261 -12.587062 8.567743 5.062053 -17.032396 -1.667403 -15.141266 -6.622421 -32.903972 -26.771614 6.925626 162.564401 -60.625540 -144.488170 -9.045081 -23.535637 3.632382 -5.306435 -1.321656 5.317786 35.377442 -30.291710 10.240407 96.706040 65.127538 115.071479 26.863101 25.180021 -18.306248 
-28.974146 -249.389481 90.143349 -173.658535 4.413768 102.302018 0.064034 -5.751064 24.317367 1.957410 -27.005374 5.055832 -3.375186 14.122296 -4.509519 nan nan nan -7.591358 11.536682 -63.612323 3.737195 -11.834272 64.939855 0.738384 -8.319561 -12.090077 nan nan nan 4.752980 -18.720171 8.246430 5.595129 -4.772456 3.058805 3.850411 -4.526867 -5.550100 -6.590105 9.850701 -11.803230 8.281029 5.762246 -17.438982 -1.444521 -14.828908 -5.126324 -33.655350 -26.756616 7.001289 163.232116 -60.939760 -145.880622 -9.412521 -22.627967 4.778158 -6.021002 -1.615752 6.964067 36.305734 -29.778615 8.764521 96.942365 65.673792 114.544168 27.244901 24.821324 -17.117060 
-28.933130 -246.760361 90.515282 -174.592898 4.794522 102.228315 -0.574347 -5.325454 26.242393 3.829861 -25.663474 2.558021 -3.112935 14.257591 0.055621 nan nan nan -7.030343 12.125249 -63.115002 4.141323 -11.000813 60.581569 0.700910 -8.080735 -11.119476 nan nan nan 4.942333 -18.790932 7.633048 5.882802 -4.861001 4.023101 4.114893 -4.195058 -6.243308 -7.412382 9.954888 -10.944406 8.260565 6.462398 -18.139959 -1.331681 -14.697943 -4.037462 -34.263844 -26.505801 7.157450 164.188331 -61.358131 -147.354706 -9.954878 -21.890514 5.066848 -6.325228 -1.849350 8.205371 37.125309 -29.377996 7.597874 97.079221 66.307857 114.286141 27.733539 24.308372 -15.800808 
-28.927498 -244.135025 90.807961 -175.371576 5.029365 102.157898 -1.301245 -4.940198 27.425148 4.981670 -24.164270 1.518313 -2.303592 13.929261 4.298695 nan nan nan -6.716054 12.732480 -62.535736 4.331639 -10.192959 56.467278 0.713718 -7.885775 -10.021787 nan nan nan 5.123073 -18.866709 6.973510 6.038316 -5.006401 4.996646 4.405160 -3.937957 -7.003316 -8.075658 9.938238 -9.819240 8.214752 7.126033 -18.871826 -1.429059 -14.902602 -3.060720 -34.835905 -25.761472 7.360191 165.458163 -61.445387 -148.194662 -9.945848 -22.526251 4.955253 -6.493051 -1.708365 9.177556 37.896554 -28.947485 6.789402 96.655548 67.140601 114.185733 27.806566 24.247907 -15.114933 
-28.950098 -241.559769 91.043579 -176.096510 5.090591 102.158476 -2.212990 -4.868002 28.440828 5.414216 -23.802013 1.143635 -1.896967 13.230077 6.713757 nan nan nan -6.576521 13.206247 -61.928937 4.483087 -9.328279 52.552182 0.852927 -7.773035 -9.063900 nan nan nan 5.198067 -18.804960 6.147026 6.177252 -5.230111 6.060828 4.590732 -3.770688 -7.686109 -8.698922 10.002859 -9.001659 8.273321 7.853571 -19.427903 -1.725501 -14.933442 -2.131902 -35.380075 -25.289504 7.719494 166.400079 -62.016118 -148.612172 -9.846947 -21.175426 5.454973 -6.216480 -1.660456 10.189560 38.724517 -28.438010 6.119153 96.237977 68.548617 113.351956 27.371824 23.742010 -15.300354 
-28.966490 -239.071167 91.253090 -176.745614 4.965307 102.185877 -3.113774 -4.884272 28.776760 4.717578 -24.227204 2.743235 -2.455890 12.857960 5.926288 nan nan nan -6.479595 13.429408 -61.245518 4.591384 -8.308215 48.924962 1.044160 -7.576893 -8.411244 nan nan nan 5.013781 -18.609732 5.446501 6.327765 -5.358848 6.712883 4.782474 -3.721590 -7.964014 -9.296326 9.902729 -8.308433 8.313482 8.358319 -20.233385 -2.581703 -15.082969 -1.343442 -35.588658 -24.876223 8.277356 167.196656 -62.648619 -149.091643 -7.936607 -21.853309 6.390808 -5.299546 -1.695676 10.546385 38.986263 -28.059840 5.403352 95.097831 69.278661 111.883154 26.451239 23.499947 -14.530495 
-28.984316 -236.645569 91.453384 -177.241819 4.663593 102.115312 -3.845998 -4.807869 28.467502 3.003852 -24.981863 5.798141 -2.897864 12.830600 4.402224 nan nan nan -6.436298 13.456884 -60.359883 4.871867 -7.108543 45.667880 1.014811 -7.692934 -8.255602 nan nan nan 4.736228 -18.402710 5.041349 6.444422 -5.516378 7.241378 4.821150 -3.682384 -8.425622 -9.506441 9.548585 -8.427721 8.312769 8.902941 -19.954492 -3.575420 -15.108453 -0.562681 -35.695794 -24.487351 9.034004 167.702723 -63.665895 -149.578837 -7.669087 -21.575466 5.822808 -4.164483 -1.890133 10.463655 39.072076 -27.583607 5.123336 93.854600 70.047290 110.542323 25.848337 22.683162 -13.774324 
-29.016630 -234.256012 91.615952 -177.522302 4.312720 101.991491 -4.567448 -4.993308 27.924533 0.791333 -25.661953 9.437693 -3.007496 12.869066 2.816395 nan nan nan -6.487144 13.244219 -59.355007 5.208878 -6.096818 42.904935 1.038822 -7.632768 -8.659123 nan nan nan 4.646090 -18.241074 4.903625 6.445575 -5.667377 7.233149 4.645771 -3.669984 -8.664443 -9.473018 9.131766 -9.170944 8.295697 9.239511 -18.765866 -4.619888 -15.013360 0.062245 -36.033826 -24.135207 10.057837 168.296281 -64.711889 -150.122733 -5.522748 -23.170921 4.354297 -2.780718 -2.162560 9.978448 39.173452 -27.169127 5.014499 91.931795 70.877475 108.634629 24.296774 22.347985 -12.452363 
-29.055843 -231.878647 91.726128 -177.841593 4.055834 101.673300 -5.267869 -5.194920 27.367502 -1.565859 -25.468781 13.371494 -3.225455 12.508555 1.417918 nan nan nan -6.371658 13.079128 -58.165632 5.431728 -5.192321 40.694212 1.172387 -7.359373 -9.201623 nan nan nan 4.615022 -18.002608 4.920619 6.441608 -5.780976 7.077987 4.391961 -3.562313 -8.516439 -9.529082 8.817742 -10.175858 8.173159 9.297479 -17.696022 -5.734694 -14.578518 0.319338 -36.872623 -24.268523 11.255652 169.392408 -66.371957 -150.984683 -3.691264 -24.177484 3.742310 -1.078448 -2.673300 9.431519 39.285867 -26.502540 4.907838 90.006555 72.215339 106.554585 22.027597 22.124862 -10.873558 
-29.062656 -229.472153 91.806412 -178.321826 3.878696 101.126906 -5.795180 -5.263265 26.910385 -4.043159 -24.554175 17.383994 -3.939239 11.680155 -0.079998 nan nan nan -5.977013 13.079756 -56.749433 5.472268 -4.294891 39.069936 1.133277 -7.049662 -9.373112 nan nan nan 4.410929 -17.721806 5.074200 6.429350 -5.875949 6.888812 4.282289 -3.353225 -8.015687 -9.857639 8.219626 -10.789182 8.183074 9.512225 -17.305189 -7.366231 -14.057789 0.705317 -37.702883 -24.580279 11.929205 171.289244 -68.159983 -153.015716 -7.280889 -23.247479 4.852920 0.836352 -2.995150 9.123247 39.462593 -25.345433 4.312081 86.490757 73.368850 102.543324 24.586475 20.322248 -8.579428 
-29.016691 -227.071091 91.776123 -178.995726 3.589203 100.647532 -6.430368 -5.186585 26.027341 -6.429314 -23.054269 21.877731 -4.147927 10.605046 -1.527422 nan nan nan -5.467389 13.063089 -55.570938 5.382341 -3.379097 38.159278 0.722213 -6.819704 -9.113194 nan nan nan 4.006384 -17.193372 5.248053 6.442536 -5.875237 6.924718 4.177997 -3.254192 -7.947519 -10.051350 7.726888 -11.269652 8.284659 9.724426 -16.796457 -9.077493 -13.784486 1.376124 -38.016955 -24.413424 12.420110 173.160452 -69.771941 -154.905468 -11.682863 -22.153681 5.962472 2.745611 -3.192050 8.974974 39.884436 -24.185834 3.826433 83.394619 74.905029 99.197196 25.888731 19.388827 -6.695557 
-28.971594 -224.684738 91.653389 -179.454088 3.255095 100.104393 -6.897720 -5.029174 24.735145 -8.753628 -21.309656 26.948117 -4.459556 9.731495 -2.307022 nan nan nan -4.959815 12.796354 -54.334373 5.433950 -2.620039 37.734890 0.034679 -6.841613 -8.901457 nan nan nan 3.643171 -16.652579 5.667020 6.390424 -5.929691 6.698088 4.015744 -3.185256 -7.914655 -10.106512 7.097577 -11.511683 8.284334 10.045721 -16.228849 -10.819648 -13.994074 2.465223 -37.968020 -23.681971 12.701660 174.215088 -71.121939 -155.303466 -14.291397 -20.509972 7.078909 4.841085 -3.155888 8.816841 40.308119 -23.269617 3.242989 80.233418 76.367611 96.353596 26.099930 18.310225 -4.873967 
-28.948441 -222.275192 91.493706 -179.694325 2.793073 99.623096 -7.397922 -5.002961 23.080428 -10.742757 -19.171076 32.136721 -4.706111 8.959186 -2.391202 nan nan nan -4.742814 12.421975 -53.078039 5.273086 -2.324419 37.656053 -0.476990 -6.798292 -8.986978 nan nan nan 3.492127 -16.249088 6.419645 6.237165 -5.941781 5.474851 3.736465 -3.178479 -7.375084 -10.315086 6.375424 -11.866354 8.264421 10.237966 -15.973891 -12.495540 -13.393855 3.332154 -38.995378 -23.110614 13.347679 175.868845 -72.416416 -156.005178 -16.353510 -19.567188 8.709327 6.955591 -3.659305 8.531985 40.699200 -21.917402 2.710859 76.298510 77.674043 93.041795 26.358729 17.157005 -2.138070 
